<svg id="Pantone_360" data-name="Pantone 360" xmlns="http://www.w3.org/2000/svg" viewbox="0 0 619 113">
<defs>
<style>.cls-1{fill:#000;}</style>
</defs>
<path class="cls-1" d="M8.05,48.53A8.24,8.24,0,0,0,8.05,65h5.37c-0.16-2.62-.26-5.35-0.28-8.23s0.11-5.61.28-8.23H8.05Z" />
<path class="cls-1" d="M34,56.94s0-.06,0-0.09,0-.06,0-0.09C34,14.35,52.28,8.65,52.28,8.65,24,7.8,22.16,45.13,22.16,56.76v0.18c0,11.63,1.88,49,30.12,48.11C52.28,105,34,99.35,34,56.94Z" />
<path class="cls-1" d="M58.15,56.94s0-.06,0-0.09,0-.06,0-0.09c0-46.31,24.4-55.95,24.4-55.95C49.35-2,45.11,45.75,45.24,56.76v0.18c-0.13,11,4.11,58.71,37.32,55.95C82.56,112.88,58.15,103.25,58.15,56.94Z" />
<path class="cls-1" d="M81.43,56.94s0-.06,0-0.09,0-.06,0-0.09c0-40.68,20.06-49.47,20.06-49.47C72.48,5,69.64,43.59,69.64,56.76v0.18c0,13.17,2.84,51.73,31.85,49.47C101.5,106.41,81.43,97.61,81.43,56.94Z" />
</svg>