<?xml version="1.0" encoding="UTF-8"?>
<svg width="192px" height="192px" viewBox="0 0 192 192" version="1.1" xmlns="http://www.w3.org/2000/svg" xmlns:xlink="http://www.w3.org/1999/xlink">
    <!-- Generator: Sketch 3.8.3 (29802) - http://www.bohemiancoding.com/sketch -->
    <title>Combined Shape</title>
    <desc>Created with Sketch.</desc>
    <defs></defs>
    <g id="Page-1" stroke="none" stroke-width="1" fill="none" fill-rule="evenodd">
        <g id="Artboard-3" transform="translate(-35.000000, -37.000000)" fill="#000000">
            <path d="M155.078078,125.103091 L155.078078,112.403978 L178.954493,102.75728 C182.799887,101.20364 184.656159,96.8229936 183.107645,92.990287 C181.555974,89.1497657 177.187049,87.2933527 173.335394,88.8495221 L155.078078,96.2259567 L155.078078,91.0449271 C155.078078,77.7613088 144.315434,67 131.039039,67 C117.759725,67 107,77.7652805 107,91.0449271 L107,96.7707298 L87.3888999,88.8473311 C83.5465838,87.2949346 79.1707357,89.1576409 77.6222217,92.9903475 C76.0705504,96.8308688 77.9294624,101.203491 81.7639697,102.752733 L103.680489,111.607581 L107,112.948751 L107,125.103091 L78.4986789,125.103091 C74.3650552,125.103091 71,128.460956 71,132.603091 C71,136.736799 74.3572729,140.103091 78.4986789,140.103091 L107,140.103091 L107,156.197109 L66.7753983,172.448903 C62.9237438,174.005072 61.0705748,178.375375 62.6222462,182.215896 C64.1707601,186.048602 68.5491033,187.910301 72.3944972,186.356661 L107,172.37513 L107,178.651677 C107,191.935295 117.762644,202.696604 131.039039,202.696604 C144.318353,202.696604 155.078078,191.931324 155.078078,178.651677 L155.078078,172.727885 L186.335394,185.356661 C190.187049,186.91283 194.555974,185.056417 196.107645,181.215896 C197.656159,177.383189 195.799887,173.002543 191.954493,171.448903 L155.078078,156.549864 L155.078078,140.103091 L181.231212,140.103091 C185.364836,140.103091 188.729891,136.745227 188.729891,132.603091 C188.729891,128.469384 185.372618,125.103091 181.231212,125.103091 L155.078078,125.103091 Z M131,229 C184.019336,229 227,186.019336 227,133 C227,79.980664 184.019336,37 131,37 C77.980664,37 35,79.980664 35,133 C35,186.019336 77.980664,229 131,229 Z M123,131.994313 C123,127.579176 126.590712,124 131,124 C135.418278,124 139,127.57869 139,131.994313 L139,178.005687 C139,182.420824 135.409288,186 131,186 C126.581722,186 123,182.42131 123,178.005687 L123,131.994313 Z" id="Combined-Shape"></path>
        </g>
    </g>
</svg>