<?xml version="1.0" encoding="UTF-8"?>
<svg width="37px" height="37px" viewBox="0 0 37 37" version="1.1" xmlns="http://www.w3.org/2000/svg" xmlns:xlink="http://www.w3.org/1999/xlink">
    <!-- Generator: Sketch 3.8.3 (29802) - http://www.bohemiancoding.com/sketch -->
    <title>Shape</title>
    <desc>Created with Sketch.</desc>
    <defs></defs>
    <g id="Page-1" stroke="none" stroke-width="1" fill="none" fill-rule="evenodd">
        <g id="Artboard-1" transform="translate(-17.000000, -14.000000)" fill="#25E47A">
            <g id="whatsapp-logo" transform="translate(17.000000, 14.000000)">
                <path d="M31.4,5.4 C28,1.9 23.3,0 18.5,0 C8.3,0 0.1,8.3 0.2,18.4 C0.2,21.6 1.1,24.7 2.6,27.5 L0,37 L9.7,34.5 C12.4,36 15.4,36.7 18.4,36.7 C28.5,36.7 36.7,28.4 36.7,18.3 C36.7,13.4 34.8,8.8 31.4,5.4 Z M27.3,22.5 L26.2,22 C26.2,22 24.6,21.3 23.6,20.8 C23.5,20.8 23.4,20.7 23.3,20.7 C23,20.7 22.8,20.8 22.6,20.9 L22.6,20.9 C22.6,20.9 22.5,21 21.1,22.6 C21,22.8 20.8,22.9 20.6,22.9 L20.5,22.9 C20.4,22.9 20.2,22.8 20.1,22.7 L19.6,22.5 L19.6,22.5 C18.5,22 17.5,21.4 16.7,20.6 C16.5,20.4 16.2,20.2 16,20 C15.3,19.3 14.6,18.5 14.1,17.6 L14,17.4 C13.9,17.3 13.9,17.2 13.8,17 C13.8,16.8 13.8,16.6 13.9,16.5 C13.9,16.5 14.3,16 14.6,15.7 C14.8,15.5 14.9,15.2 15.1,15 C15.3,14.7 15.4,14.3 15.3,14 C15.2,13.5 14,10.8 13.7,10.2 C13.5,9.9 13.3,9.8 13,9.7 L12.7,9.7 L11.9,9.7 C11.7,9.7 11.5,9.8 11.3,9.8 L11.2,9.9 C11,10 10.8,10.2 10.6,10.3 C10.4,10.5 10.3,10.7 10.1,10.9 C9.4,11.8 9,12.9 9,14 L9,14 C9,14.8 9.2,15.6 9.5,16.3 L9.6,16.6 C10.5,18.5 11.7,20.2 13.3,21.7 L13.7,22.1 C14,22.4 14.3,22.6 14.5,22.9 C16.6,24.7 19,26 21.7,26.7 C22,26.8 22.4,26.8 22.7,26.9 L22.7,26.9 L23.7,26.9 C24.2,26.9 24.8,26.7 25.2,26.5 C25.5,26.3 25.7,26.3 25.9,26.1 L26.1,25.9 C26.3,25.7 26.5,25.6 26.7,25.4 C26.9,25.2 27.1,25 27.2,24.8 C27.4,24.4 27.5,23.9 27.6,23.4 L27.6,22.7 C27.6,22.7 27.5,22.6 27.3,22.5 L27.3,22.5 Z" id="Shape"></path>
            </g>
        </g>
    </g>
</svg>